<svg width="150" height="175" stroke="current" fill="current">

 <g>
  <g id="svg_5">
   <path id="svg_1" d="m19.95631,88.57053l10.53484,0l0,-49.81383q1.49237,-3.57257 4.25777,-6.6733q2.7654,-3.10073 6.3648,-5.39253q3.95056,-2.4267 8.77905,-3.87593q4.82849,-1.44924 10.27149,-1.44924q6.23305,-0.06742 10.75432,1.28071q4.5212,1.34813 7.59382,3.97703q2.98489,2.62884 4.43339,6.47109q1.44858,3.84219 1.53639,8.83031l0,46.64567l10.53484,0l-0.08781,-46.78051q0,-6.53846 -2.10695,-11.6951q-2.10703,-5.15664 -6.14532,-8.66184q-4.12617,-3.50514 -10.13981,-5.32511q-6.01364,-1.82002 -13.82695,-1.82002q-5.88197,0 -11.06162,1.31445q-5.17965,1.31445 -9.5691,3.67367q-3.68721,1.95481 -6.67209,4.65107q-2.98489,2.69632 -5.17965,5.86442l-0.5267,-14.15548l-9.74471,0l0,72.93446z"/>
   <path id="svg_2" d="m59.80073,89.1409l0,1.53055q0,7.72558 2.17749,15.12322q2.17742,7.39764 6.69365,12.93677q4.27425,5.46624 10.64532,8.74597q6.371,3.27973 15.00022,3.27973q4.35484,0 8.42753,-0.91107q4.07262,-0.91101 7.62104,-2.58729q2.98391,-1.38482 5.52428,-3.31621q2.54037,-1.9314 4.47587,-4.40943l0,8.67307q0,5.61204 -1.73388,10.20362q-1.73388,4.59165 -4.95978,7.87138q-3.38709,3.35263 -8.18561,5.17471q-4.79845,1.82208 -11.0082,1.82208q-3.95166,0 -7.54044,-0.91101q-3.58878,-0.91107 -6.81461,-2.66025q-2.66133,-1.31192 -5.2017,-3.27973q-2.54037,-1.96788 -4.87911,-4.51875l-5.40325,5.32044q2.58067,3.2069 5.92746,5.57556q3.34686,2.36872 6.97594,3.97211q4.27425,1.96788 8.79048,2.95178q4.51617,0.98391 8.79041,0.98391q8.06465,0 14.51638,-2.40514q6.45166,-2.40514 10.9679,-6.7781q4.51617,-4.30012 6.97587,-10.31294q2.45971,-6.01288 2.45971,-13.3012l0,-77.47466l-8.95174,0l-0.40325,11.00532q-1.85484,-2.55087 -4.23388,-4.66449q-2.37911,-2.11361 -5.2017,-3.64416q-3.54848,-2.04071 -7.78236,-3.09752q-4.23395,-1.05681 -8.9921,-1.05681q-9.11306,0 -15.68569,3.49836q-6.57269,3.49836 -10.76634,9.1833q-4.19358,5.61197 -6.20974,12.6816q-2.01616,7.06969 -2.01616,14.79527zm9.67757,1.53055l0,-1.53055q0,-5.83061 1.371,-11.51554q1.371,-5.68487 4.43557,-10.27646q3.06451,-4.66455 8.22591,-7.68917q5.16133,-3.02468 12.82274,-3.02468q4.27431,0 8.02435,1.1297q3.75004,1.1297 6.81461,3.17042q3.06458,2.04071 5.40332,4.81028q2.33875,2.76957 3.79034,6.19503l0,37.0246q-1.45159,3.27973 -3.9113,5.90357q-2.45977,2.62377 -5.52428,4.44585q-3.2259,1.82208 -6.93564,2.76957q-3.70967,0.94749 -7.82266,0.94749q-7.0969,0 -12.17757,-2.69667q-5.08074,-2.69667 -8.14531,-7.06969q-3.3065,-4.59165 -4.79845,-10.56805q-1.49196,-5.9764 -1.57262,-12.0257z"/>
   <rect stroke="null" id="svg_3" stroke-miterlimit="8" stroke-linecap=" round"  height="73.563" width="11" y="52.06107" x="84.33231"/>
  </g>
 </g>
</svg>